PathFileType	4	(X/Y/Z)	C:/Users/opensim2020/Desktop/walking_exp_matlab/subject01_walking08_straight_04.trc																																																																																																																															
DataRate	CameraRate	NumFrames	NumMarkers	Units	OrigDataRate	OrigDataStartFrame	OrigNumFrames																																																																																																																											
100	100	5	43	mm	100	3659	256																																																																																																																											
Frame#	Time	LFHD			RFHD			LBHD			RBHD			C7			T10			CLAV			STRN			RBAK			LSHO			LUPA			LELB			LFRM			LWRA			LWRB			LFIN			RSHO			RUPA			RELB			RFRM			RWRA			RWRB			RFIN			LASI			RASI			LPSI			RPSI			LTHI			LKNE			LTIB			LANK			LHEE			LTOE			RTHI			RKNE			RTIB			RANK			RHEE			RTOE			*39			*40			*41			*42		
		X1	Y1	Z1	X2	Y2	Z2	X3	Y3	Z3	X4	Y4	Z4	X5	Y5	Z5	X6	Y6	Z6	X7	Y7	Z7	X8	Y8	Z8	X9	Y9	Z9	X10	Y10	Z10	X11	Y11	Z11	X12	Y12	Z12	X13	Y13	Z13	X14	Y14	Z14	X15	Y15	Z15	X16	Y16	Z16	X17	Y17	Z17	X18	Y18	Z18	X19	Y19	Z19	X20	Y20	Z20	X21	Y21	Z21	X22	Y22	Z22	X23	Y23	Z23	X24	Y24	Z24	X25	Y25	Z25	X26	Y26	Z26	X27	Y27	Z27	X28	Y28	Z28	X29	Y29	Z29	X30	Y30	Z30	X31	Y31	Z31	X32	Y32	Z32	X33	Y33	Z33	X34	Y34	Z34	X35	Y35	Z35	X36	Y36	Z36	X37	Y37	Z37	X38	Y38	Z38	X39	Y39	Z39	X40	Y40	Z40	X41	Y41	Z41	X42	Y42	Z42	X43	Y43	Z43
																																																																																																																																		
1	0	-1098.40234	1672.90405	-1507.89392	-1064.6427	1683.13806	-1399.87354	-1204.7085	1614.83325	-1477.05908	-1172.8136	1624.36548	-1361.76819	-1220.20276	1426.90588	-1429.36072	-1237.87134	1133.27393	-1407.79419	-1074.58752	1367.77759	-1448.34277	-1021.55225	1216.10144	-1454.505	-1252.97559	1232.05444	-1339.90674	-1158.91565	1386.30884	-1600.85828	-1201.09644	1196.66309	-1670.89771	-1221.41064	1049.01123	-1660.27332	-1198.14514	938.01788	-1683.48792	-1134.71252	813.54089	-1663.8114	-1190.9187	816.06647	-1687.41565	-1154.24927	737.87793	-1691.53516	-1117.99536	1396.56506	-1289.19275	-1139.11755	1193.02136	-1178.49719	-1121.1416	1068.19714	-1173.66418	-1060.07654	960.97528	-1153.67273	-956.02069	871.25391	-1192.30652	-990.51953	859.729	-1146.36353	-933.93768	796.59845	-1158.93701	-1067.8938	934.52496	-1529.41809	-1049.60608	928.41711	-1314.08057	-1251.40979	944.92999	-1465.15454	-1236.21228	947.60687	-1321.00391	-1038.88184	616.67706	-1594.23315	-1019.42297	484.24368	-1579.1925	-1041.63147	295.84381	-1598.24463	-1031.58521	74.65152	-1553.28235	-1069.7594	43.22389	-1497.22522	-883.58588	44.42275	-1562.82849	-1143.93567	599.7887	-1256.76721	-1171.21509	440.0043	-1277.38831	-1292.19043	311.66998	-1253.84668	-1411.37866	135.22319	-1282.96802	-1477.64246	123.42207	-1322.28589	-1306.04126	40.89497	-1316.15356	-1084.65002	1714.38367	-1419.46704	-1973.15076	1023.40204	3101.96875	-2012.51978	1022.07001	3140.64526	NaN	NaN	NaN
2	0.01	-1091.8374	1674.01721	-1511.19641	-1058.24084	1684.34241	-1403.21082	-1198.16052	1615.90942	-1480.50452	-1166.62109	1625.64954	-1365.36267	-1213.30164	1427.80237	-1432.78967	-1230.62939	1134.26709	-1410.91089	-1067.61279	1369.04504	-1451.43213	-1014.30353	1217.36475	-1457.42578	-1246.1084	1233.16199	-1342.95325	-1151.64539	1387.31506	-1604.13818	-1192.44324	1197.43384	-1674.17725	-1211.83923	1049.7644	-1663.92773	-1187.88721	939.1051	-1687.46216	-1123.66797	814.82391	-1668.00317	-1179.74597	816.9704	-1691.30286	-1142.65845	739.07422	-1695.85059	-1111.64807	1397.8772	-1292.55884	-1134.07776	1194.40186	-1181.54187	-1116.27258	1069.60266	-1176.75952	-1056.18774	961.84473	-1156.31274	-952.90314	870.94678	-1194.08081	-987.88879	859.94904	-1148.20813	-931.78088	796.1828	-1160.3446	-1060.57886	935.53027	-1532.50732	-1042.3855	929.78229	-1317.32825	-1244.09119	946.138	-1467.92322	-1228.68188	949.07367	-1323.84619	-1032.45569	617.46399	-1596.85071	-1014.7287	484.16034	-1580.99512	-1038.22656	295.79367	-1599.30994	-1031.14514	74.71513	-1553.271	-1069.60864	43.31559	-1497.36902	-883.0639	43.43732	-1562.69214	-1132.99255	600.05463	-1259.24756	-1158.91162	440.37302	-1278.55627	-1283.74719	315.3952	-1255.6228	-1406.39575	140.99022	-1283.95679	-1471.80493	131.39578	-1324.69165	-1305.05591	40.68502	-1315.94885	-1078.15588	1715.62317	-1422.83032	-1973.16748	1023.42334	3101.97046	-2012.53076	1021.98962	3140.81348	NaN	NaN	NaN
3	0.02	-1085.2124	1675.03113	-1514.46729	-1051.92676	1685.52344	-1406.51282	-1191.59534	1616.96643	-1483.96545	-1160.23145	1626.85388	-1368.67395	-1206.39258	1428.73303	-1436.29932	-1223.55847	1135.30212	-1414.10779	-1060.69836	1370.23413	-1454.43555	-1007.24213	1218.62231	-1460.34839	-1239.20142	1234.31445	-1345.91785	-1144.33594	1388.3374	-1607.36292	-1183.90198	1198.52698	-1677.78931	-1202.28357	1050.61975	-1667.59155	-1177.57971	940.19208	-1691.33044	-1112.4718	816.33868	-1672.33984	-1168.51123	818.12518	-1695.52881	-1130.99023	740.49286	-1700.34521	-1105.05273	1399.09338	-1295.73828	-1128.81946	1195.88074	-1184.68774	-1111.46167	1071.03662	-1179.96912	-1052.4353	962.79266	-1158.99939	-949.88788	870.76703	-1195.88208	-985.3288	860.26733	-1150.10205	-929.67487	795.93408	-1161.99353	-1053.43457	936.58258	-1535.88525	-1035.38745	931.2157	-1320.66919	-1236.82153	947.15228	-1470.80603	-1221.2926	950.60126	-1326.73816	-1027.59448	617.49872	-1599.05627	-1010.4408	484.05112	-1582.73401	-1034.98315	295.64539	-1599.8313	-1030.70166	74.7641	-1553.20581	-1069.49072	43.41848	-1497.41235	-882.27625	42.83002	-1562.33826	-1121.80786	600.64349	-1261.54944	-1145.97485	440.63293	-1279.56018	-1274.03198	318.66849	-1257.03345	-1400.60461	146.88741	-1285.2887	-1464.82263	139.58665	-1327.41089	-1304.01172	40.73115	-1316.396	-1071.69873	1716.85767	-1426.17993	-1973.14612	1023.67639	3101.93506	-2012.42859	1021.95331	3140.72974	NaN	NaN	NaN
4	0.03	-1078.59888	1675.99402	-1517.75452	-1045.41858	1686.60193	-1409.63611	-1184.98914	1617.89709	-1487.33801	-1154.07471	1627.88623	-1372.25684	-1199.55774	1429.53821	-1439.66687	-1216.57056	1136.29773	-1417.35669	-1053.83569	1371.36963	-1457.49487	-1000.2132	1219.73267	-1463.16443	-1232.30518	1235.4115	-1348.85925	-1136.97156	1389.36487	-1610.50916	-1175.41406	1199.40515	-1680.98743	-1192.73987	1051.53345	-1671.29419	-1167.23901	941.34564	-1695.28467	-1101.08533	817.89417	-1676.65479	-1157.36462	819.54602	-1699.93628	-1119.09937	742.06244	-1705.06982	-1098.60315	1400.33582	-1298.95154	-1123.51379	1197.46033	-1187.40747	-1106.84875	1072.43335	-1183.02905	-1048.87952	963.6344	-1161.38281	-946.94873	870.5683	-1197.75427	-982.29218	860.4494	-1152.23755	-927.64142	795.52118	-1163.53296	-1046.42212	937.29132	-1539.27222	-1028.8573	932.48114	-1324.23621	-1230.04138	948.09277	-1473.93933	-1214.0741	952.10217	-1329.7583	-1023.62292	617.17334	-1601.35474	-1006.31012	483.82642	-1584.26733	-1032.16296	295.52744	-1600.28967	-1030.37598	74.87201	-1553.14392	-1069.41772	43.53505	-1497.39063	-881.78522	42.39861	-1562.29504	-1109.74133	600.83228	-1263.59583	-1132.48169	440.90787	-1280.55957	-1263.99585	322.35217	-1258.71887	-1393.66748	152.83771	-1286.86597	-1456.92944	147.95941	-1330.30103	-1302.76831	40.99606	-1317.18079	-1065.25525	1717.9696	-1429.4762	-1973.13623	1023.58276	3102.07373	-2012.48999	1022.03235	3140.65234	NaN	NaN	NaN
5	0.04	-1071.93591	1676.80664	-1520.90698	-1039.13062	1687.60815	-1412.73755	-1178.36169	1618.73853	-1490.63916	-1147.41797	1628.86438	-1375.29541	-1192.79688	1430.2832	-1443.03394	-1209.71082	1137.21667	-1420.73999	-1046.94739	1372.36133	-1460.41589	-993.30939	1220.78125	-1466.02991	-1225.48779	1236.42786	-1351.77295	-1129.58301	1390.36182	-1613.58423	-1166.99756	1200.50085	-1684.5304	-1183.22339	1052.47302	-1675.04175	-1156.84351	942.48633	-1699.25403	-1089.49634	819.60626	-1681.16357	-1145.93774	820.84888	-1704.198	-1106.94287	743.72253	-1709.82727	-1091.89795	1401.38538	-1302.08362	-1117.9552	1198.96667	-1190.19653	-1102.20642	1073.75659	-1186.03589	-1045.35913	964.5351	-1163.88159	-944.03961	870.36316	-1199.53015	-979.57391	860.84027	-1154.41931	-925.58234	794.9472	-1165.21118	-1039.49255	938.04285	-1542.8075	-1021.79041	934.00482	-1327.64941	-1222.61633	948.86761	-1476.86951	-1207.08801	953.49774	-1332.76904	-1020.30774	616.25244	-1603.28601	-1002.45453	483.3934	-1585.68835	-1029.85327	295.12903	-1600.61365	-1029.92676	74.80002	-1552.88037	-1069.33435	43.65033	-1497.30115	-881.47418	41.74464	-1562.34717	-1097.83289	601.14203	-1265.29993	-1118.68066	441.20068	-1281.77319	-1253.1355	325.90619	-1260.5033	-1385.69958	158.62627	-1288.52429	-1448.01111	156.32079	-1333.13062	-1301.76575	41.57305	-1317.53552	-1058.83179	1718.91663	-1432.68152	-1973.1582	1023.51874	3101.89185	-2012.60864	1022.20355	3140.80078	NaN	NaN	NaN
